# xmcd
#
# Track frame offsets:
#	150
#	1538
#	11641
#	26774
#	39128
#	42037
#	57613
#	77060
#	89215
#	101047
#	119298
#	134086
#	144903
#	157328
#
# Disc length: 2201 seconds
#
# Revision: 1
# Processed by: cddbd v1.5.2PL0 Copyright (c) Steve Scherf et al.
# Submitted via: audiograbber 1.83.01
#
DISCID=b808970e
DTITLE=The Bluegrass Brothers - Live From The Hills Of Virginia
DYEAR=2001
DGENRE=Bluegrass
TTITLE0=Band Intro
TTITLE1=Breaking It Down
TTITLE2=It's All Over
TTITLE3=Country Boy Moves On
TTITLE4=Pike County Breakdown
TTITLE5=Blue Ridge Cabin Home
TTITLE6=Country Poor and Country Proud
TTITLE7=Blue-Eyed Girl
TTITLE8=What's That I Hear
TTITLE9=Momma's Gonna Pray
TTITLE10=He Will Set Your Fields On Fire
TTITLE11=Love Me Darling Just Tonight
TTITLE12=Warner
TTITLE13=Shady Grove
EXTD=Jack Leonard - Mandolin and Vocals\nVictor Dowdy - Bass and Vocals\nSteve Dowd
EXTD=y - Guitar and Vocals\nRobert Dowdy - Banjo and Vocals
EXTT0=
EXTT1=
EXTT2=
EXTT3=
EXTT4=
EXTT5=
EXTT6=
EXTT7=
EXTT8=
EXTT9=
EXTT10=
EXTT11=
EXTT12=
EXTT13=
PLAYORDER=
